<!DOCTYPE svg PUBLIC "-//W3C//DTD SVG 1.1//EN" "http://www.w3.org/Graphics/SVG/1.1/DTD/svg11.dtd">
<!-- Uploaded to: SVG Repo, www.svgrepo.com, Transformed by: SVG Repo Mixer Tools -->
<svg fill="#b67e49" version="1.1" id="Capa_1" xmlns="http://www.w3.org/2000/svg" xmlns:xlink="http://www.w3.org/1999/xlink" width="800px" height="800px" viewBox="0 0 30.019 30.019" xml:space="preserve">
<g id="SVGRepo_bgCarrier" stroke-width="0"/>
<g id="SVGRepo_tracerCarrier" stroke-linecap="round" stroke-linejoin="round"/>
<g id="SVGRepo_iconCarrier"> <g> <g> <path d="M5.198,16.98l-0.547-0.295c0.041,0.246,0.058,0.713,0.064,1.07C4.862,17.503,5.049,17.195,5.198,16.98z"/> <path d="M10.242,11.776l0.052,0.097c0.037-0.002,0.078-0.005,0.113-0.007C10.355,11.839,10.297,11.806,10.242,11.776z"/> <path d="M11.568,11.971c-0.185,0.015-0.375,0.027-0.543,0.036c0.21,0.113,0.462,0.253,0.668,0.379L11.568,11.971z"/> <path d="M7.695,18.318l-1.435-0.77c0.051,0.225,0.026,0.418-0.098,0.491c-0.12,0.071-0.768,0.094-1.22,0.102 c0.004,0.002,0.008,0.005,0.012,0.007l2.5,0.754l0.186-0.146l3.35,1.272L7.724,18.55L7.695,18.318z"/> <path d="M10.646,12.245c-0.023,0.044-0.052,0.094-0.077,0.141l0.095,0.178C10.657,12.454,10.651,12.344,10.646,12.245z"/> <path d="M4.556,18.369c-0.224,0.386-0.551,0.924-0.675,1.008L4.636,19.5C4.584,19.289,4.563,18.764,4.556,18.369z"/> <path d="M7.317,19.301l-1.423-0.538c0.021,0.021,0.056,0.046,0.064,0.061c0.11,0.188-0.091,0.512-0.451,0.724 c-0.052,0.03-0.103,0.048-0.155,0.069l1.803,0.295l0.164-0.168l3.487,0.824l-3.431-1.039L7.317,19.301z"/> <path d="M19.871,12.097l-0.049,0.109c0.076-0.002,0.155-0.004,0.226-0.005C19.992,12.169,19.931,12.132,19.871,12.097z"/> <path d="M22.863,19.914l1.896-0.311c-0.085-0.136-0.111-0.268-0.053-0.363c0.072-0.119,0.631-0.447,1.027-0.668 c-0.303-0.01-0.682-0.028-0.941-0.062l-2.096,0.792l-0.056,0.227l-3.432,1.035l3.491-0.82L22.863,19.914z"/> <path d="M12.22,14.134l-0.299-0.993c-0.077,0.089-0.167,0.176-0.286,0.251c-0.149,0.094-0.299,0.146-0.436,0.169l0.438,0.815 l0.233,0.027l1.473,3.27l-1.267-3.354L12.22,14.134z"/> <path d="M29.396,20.748c0.04-0.041,0.555-0.565,0.495-1.018c-0.062-0.451-0.688-0.822-0.741-0.854 c0.034-0.045,0.478-0.633,0.358-1.074c-0.12-0.438-0.788-0.725-0.847-0.748c0.029-0.051,0.389-0.689,0.216-1.111 c-0.177-0.418-0.878-0.615-0.938-0.63c0.022-0.054,0.297-0.735,0.069-1.13c-0.229-0.393-0.948-0.495-1.013-0.503 c0.016-0.058,0.197-0.769-0.078-1.13c-0.278-0.358-1.004-0.367-1.068-0.367c0.008-0.06,0.096-0.788-0.227-1.109 c-0.324-0.321-1.051-0.232-1.107-0.225c0-0.061-0.01-0.793-0.367-1.07C23.785,9.503,23.08,9.684,23.02,9.7 c-0.008-0.06-0.113-0.786-0.504-1.014c-0.396-0.225-1.072,0.047-1.129,0.071c-0.016-0.058-0.214-0.765-0.634-0.939 c-0.423-0.171-1.056,0.186-1.109,0.217c-0.022-0.055-0.312-0.729-0.75-0.848c-0.438-0.115-1.021,0.321-1.071,0.36 c-0.029-0.054-0.403-0.683-0.854-0.743c-0.46-0.058-0.992,0.473-1.02,0.5c-0.04-0.053-0.489-0.623-0.941-0.623 c-0.455,0-0.906,0.576-0.942,0.625c-0.04-0.041-0.563-0.556-1.016-0.496c-0.452,0.06-0.824,0.69-0.854,0.742 c-0.048-0.037-0.631-0.477-1.071-0.358c-0.439,0.117-0.726,0.788-0.749,0.846c-0.054-0.031-0.689-0.39-1.109-0.216 C8.845,7.999,8.649,8.703,8.633,8.762C8.576,8.738,7.899,8.465,7.505,8.693C7.11,8.92,7.008,9.646,7,9.706 C6.94,9.688,6.233,9.507,5.873,9.784c-0.362,0.275-0.369,1.007-0.369,1.068c-0.058-0.007-0.785-0.097-1.106,0.226 c-0.324,0.322-0.234,1.05-0.226,1.108c-0.057,0-0.792,0.006-1.069,0.368c-0.279,0.361-0.094,1.072-0.079,1.128 c-0.055,0.007-0.783,0.109-1.012,0.504c-0.229,0.396,0.046,1.075,0.069,1.129c-0.053,0.014-0.763,0.209-0.938,0.631 c-0.176,0.42,0.186,1.059,0.216,1.11c-0.05,0.021-0.729,0.308-0.848,0.749c-0.118,0.439,0.322,1.024,0.359,1.072 c-0.047,0.027-0.682,0.4-0.742,0.854c-0.061,0.451,0.453,0.975,0.496,1.018C0.581,20.781,0.001,21.234,0,21.691h6.361h4.213h1.787 h1c0,0.909,0.737,1.646,1.646,1.646c0.909,0,1.646-0.737,1.646-1.646h1h1.733h4.267h6.366 C30.017,21.236,29.447,20.785,29.396,20.748z M23.055,21.374l-0.113,0.204l-0.55,0.017l-4.784-0.356 c-0.215-1.244-1.295-2.194-2.601-2.194c-1.306,0-2.386,0.95-2.601,2.194l-4.773,0.355l-0.555-0.018l-0.116-0.203L0.839,20.76 l6.153,0.19l0.141-0.189l3.564,0.361L7.16,20.541l-0.089-0.217l-5.989-1.405l2.413,0.394C3.373,19.23,3.249,19.1,3.151,18.933 c-0.211-0.359-0.23-0.74-0.042-0.85c0.082-0.049,0.412-0.074,0.755-0.088l-2.302-0.87l2.688,0.81 c-0.384-0.224-0.872-0.523-0.938-0.637c-0.11-0.188,0.091-0.512,0.451-0.723c0.14-0.082,0.279-0.127,0.408-0.149l-1.9-1.02 l3.074,1.387c0.018-0.019,0.041-0.05,0.053-0.058c0.175-0.103,0.463,0.071,0.673,0.385l1.813,0.816l0.203-0.121l3.154,1.698 l-3.044-1.891l0.001-0.233l-4.999-3.593l5.234,3.243l0.217-0.094l2.906,2.096l-2.771-2.271l0.032-0.231l-4.483-4.212l4.763,3.895 l0.227-0.064l2.609,2.457L9.481,16l0.062-0.226l-3.89-4.754l4.207,4.477l0.233-0.034l2.269,2.776l-2.092-2.912l0.091-0.215 L7.128,9.896l3.584,4.983l0.235-0.003l1.886,3.049l-1.692-3.16l0.118-0.202l-0.852-1.888c-0.166,0.29-0.333,0.559-0.411,0.608 c-0.184,0.116-0.514-0.074-0.736-0.427s-0.254-0.731-0.07-0.847c0.089-0.057,0.48-0.095,0.861-0.121l-0.132-0.292 c-0.266-0.154-0.504-0.305-0.55-0.377c-0.08-0.126-0.007-0.32,0.154-0.501L8.734,8.968l0.887,1.652 c0.054-0.048,0.108-0.097,0.175-0.139c0.353-0.223,0.732-0.254,0.848-0.07c0.075,0.118,0.119,0.765,0.141,1.217 c0.135-0.25,0.306-0.554,0.447-0.773L10.45,8.262l0.912,2.412c0.026-0.032,0.055-0.072,0.073-0.083 c0.184-0.116,0.514,0.074,0.736,0.427c0.222,0.353,0.253,0.732,0.069,0.849c-0.051,0.032-0.209,0.058-0.398,0.079l0.777,2.056 l0.229,0.058l1.034,3.434l-0.818-3.491l0.167-0.165L12.24,7.775l1.403,5.979l0.219,0.087l0.578,3.539l-0.356-3.567l0.188-0.141 L14.08,7.53l0.612,6.115l0.205,0.115l0.111,3.584l0.111-3.584l0.205-0.115l0.614-6.139l-0.193,6.167l0.188,0.139l-0.356,3.567 l0.576-3.54l0.223-0.086l1.4-5.968l-0.99,6.053L16.953,14l-0.817,3.489l1.033-3.435l0.229-0.057l2.17-5.74l-1.772,5.878 l0.146,0.183l-1.268,3.353l1.473-3.27l0.235-0.026l0.585-1.091c-0.033-0.043-0.068-0.082-0.098-0.132 c-0.211-0.359-0.23-0.74-0.043-0.85c0.078-0.046,0.386-0.071,0.713-0.085l0.13-0.242c-0.302-0.184-0.589-0.374-0.64-0.458 c-0.109-0.188,0.092-0.511,0.451-0.723c0.356-0.209,0.731-0.228,0.846-0.046l0.957-1.785l-0.904,2.005 c0.033,0.258,0.048,0.679,0.054,1.004c0.228-0.392,0.563-0.946,0.683-1.017c0.184-0.107,0.494,0.084,0.705,0.425l1.069-1.488 l-1.003,1.62c0.156,0.325,0.163,0.645-0.006,0.744c-0.062,0.036-0.262,0.06-0.501,0.076l-0.208,0.335 c0.248,0.155,0.464,0.303,0.506,0.375c0.109,0.188-0.091,0.511-0.451,0.723c-0.316,0.187-0.641,0.213-0.79,0.089l-0.78,1.259 l0.092,0.214l-2.09,2.912l2.27-2.776L20.16,15.5l4.207-4.478l-3.893,4.757l0.062,0.224l-2.451,2.612l2.611-2.457l0.227,0.066 l4.744-3.882l-4.469,4.199l0.033,0.229l-2.771,2.271l2.91-2.094l0.216,0.095l5.217-3.233l-4.985,3.584l0.004,0.232l-3.045,1.89 l3.158-1.696l0.201,0.121l5.598-2.525L22.32,18.32l-0.024,0.231l-3.269,1.476l3.354-1.27l0.185,0.146l1.864-0.562 c-0.077-0.168-0.03-0.458,0.14-0.739c0.217-0.356,0.543-0.552,0.729-0.438c0.094,0.058,0.317,0.417,0.517,0.76l0.164-0.05 c0.02-0.394,0.051-0.81,0.106-0.903c0.112-0.188,0.493-0.162,0.85,0.055c0.205,0.125,0.347,0.283,0.419,0.434l1.088-0.329 l-1.061,0.401c0.023,0.082,0.031,0.16-0.006,0.222c-0.072,0.118-0.631,0.446-1.026,0.668c0.452,0.015,1.101,0.048,1.22,0.12 c0.142,0.086,0.16,0.326,0.066,0.592l1.29-0.211l-1.339,0.314c-0.023,0.051-0.042,0.103-0.073,0.153 c-0.216,0.356-0.542,0.554-0.729,0.44c-0.053-0.033-0.152-0.172-0.264-0.344l-0.449,0.104c-0.019,0.206-0.043,0.376-0.076,0.431 c-0.112,0.187-0.492,0.161-0.85-0.055c-0.061-0.037-0.109-0.08-0.158-0.121l-2.045,0.48l-0.084,0.216l-3.539,0.579l3.567-0.358 l0.14,0.188l6.137-0.191L23.055,21.374z"/> <path d="M25.972,18.064l-0.063,0.024c0.02,0.032,0.041,0.069,0.059,0.101C25.968,18.15,25.97,18.105,25.972,18.064z"/> <path d="M21.128,12.345c-0.161,0.006-0.323,0.012-0.468,0.014c0.101,0.058,0.211,0.123,0.32,0.19L21.128,12.345z"/> <path d="M19.307,14.878l1.01-1.404c-0.024-0.259-0.037-0.605-0.043-0.887c-0.227,0.392-0.562,0.946-0.683,1.017 c-0.099,0.058-0.233,0.026-0.371-0.065l-0.462,1.025l0.119,0.201l-1.693,3.159l1.887-3.049L19.307,14.878z"/> <path d="M26.089,19.385l0.336-0.055c-0.106-0.175-0.215-0.363-0.308-0.527C26.111,18.984,26.101,19.191,26.089,19.385z"/> </g> </g> </g>
</svg>