<?xml version="1.0" encoding="utf-8"?><!-- Uploaded to: SVG Repo, www.svgrepo.com, Generator: SVG Repo Mixer Tools -->
<svg width="800px" height="800px" viewBox="0 0 36 36" xmlns="http://www.w3.org/2000/svg" xmlns:xlink="http://www.w3.org/1999/xlink" aria-hidden="true" role="img" class="iconify iconify--twemoji" preserveAspectRatio="xMidYMid meet"><path fill="#9AAAB4" d="M18 12c-6.627 0-12 5.373-12 12s5.373 12 12 12s12-5.373 12-12s-5.373-12-12-12zm0 20a8 8 0 1 1 0-16a8 8 0 0 1 0 16z"></path><path fill="#5DADEC" d="M29 5l-4-5H11L7 5l11 9z"></path><path fill="#8CCAF7" d="M29 5l-4-5H11L7 5h11z"></path><path fill="#5DADEC" d="M29 5l-4-5h-7v5h1z"></path><path fill="#8CCAF7" d="M18 5h11l-11 9z"></path><path fill="#9AAAB4" d="M25 13a3 3 0 0 1-3 3h-8a3 3 0 1 1 0-6h8a3 3 0 0 1 3 3z"></path></svg>