<?xml version="1.0" encoding="iso-8859-1"?>
<!-- Uploaded to: SVG Repo, www.svgrepo.com, Generator: SVG Repo Mixer Tools -->
<svg height="800px" width="800px" version="1.1" id="Layer_1" xmlns="http://www.w3.org/2000/svg" xmlns:xlink="http://www.w3.org/1999/xlink" 
	 viewBox="0 0 512 512" xml:space="preserve">
<path style="fill:#999999;" d="M115.459,219.996l-15.688,45.981L89.35,296.52C52.046,333.823,0,332.409,0,332.409
	c9.406-42.344,29.438-68.771,50.21-85.246C81.962,221.957,115.459,219.996,115.459,219.996z"/>
<path style="fill:#CCCCCC;" d="M512,332.409c0,0-52.046,1.414-89.35-35.891L412.24,266.01l-15.699-46.015
	c0,0,33.417,1.95,65.134,27.066C482.494,263.537,502.571,289.986,512,332.409z"/>
<path style="fill:#808080;" d="M50.21,247.164c31.752-25.208,65.248-27.169,65.248-27.169l-15.688,45.981
	c-2.736,0.433-5.552,0.661-8.425,0.661C74.768,266.637,59.958,259.055,50.21,247.164z"/>
<path style="fill:#999999;" d="M461.676,247.061c-9.759,11.948-24.604,19.576-41.226,19.576c-2.793,0-5.53-0.217-8.209-0.627
	l-15.699-46.015C396.541,219.996,429.958,221.946,461.676,247.061z"/>
<path style="fill:#F2F2F2;" d="M412.833,260.617c8.471,25.265,13.157,50.826,13.157,74.118c0,93.945-76.159,170.081-170.104,170.081
	c-93.934,0-170.081-76.136-170.081-170.081c0-23.292,4.686-48.854,13.157-74.118c4.709-14.069,10.603-28.058,17.523-41.5v-54.6
	l105.985-46.174l100.9-17.102l82.099,48.455l9.144,5.393l13.077,7.719l-32.402,56.276
	C402.208,232.537,408.113,246.537,412.833,260.617z"/>
<g>
	<path style="fill:#E6E6E6;" d="M125.141,334.736c0-24.602,5.222-51.739,14.62-78.392c10.398-29.489,16.054-60.439,16.054-91.708
		v-0.123l105.994-46.172l70.338-11.922l-8.777-5.177l-100.895,17.1L116.48,164.515v54.602
		c-19.332,37.604-30.672,79.364-30.672,115.62c0,93.939,76.144,170.084,170.084,170.084c6.653,0,13.213-0.395,19.666-1.138
		C190.885,493.933,125.141,422.023,125.141,334.736z"/>
	<path style="fill:#E6E6E6;" d="M395.287,219.084c6.92,13.453,12.826,27.454,17.546,41.534
		c-18.641-2.668-34.158-15.004-41.318-31.763c-2.827,0.638-5.758,0.98-8.767,0.98c-15.118,0-28.286-8.368-35.127-20.727
		c-1.402,0.228-2.839,0.342-4.31,0.342c-3.318,0-6.499-0.593-9.44-1.687c-11.846,19.633-33.371,32.767-57.975,32.767
		c-24.547,0-46.038-13.077-57.895-32.63c-2.839,1.003-5.894,1.551-9.075,1.551c-1.608,0-3.181-0.148-4.709-0.422
		c-6.829,12.404-20.02,20.807-35.172,20.807c-3.01,0-5.94-0.342-8.767-0.98c-7.16,16.76-22.677,29.096-41.318,31.763
		c4.709-14.069,10.603-28.058,17.523-41.5v-54.6l105.985-46.174l100.9-17.102l82.099,48.455c-1.049,2.976-2.36,5.826-3.899,8.528
		c4.127-1.562,8.505-2.634,13.043-3.135l13.077,7.719L395.287,219.084z"/>
</g>
<path style="fill:#CCCCCC;" d="M420.449,119.012c-6.65,0-13.01,1.23-18.878,3.459c4.396-7.741,6.918-16.685,6.918-26.224
	c0-29.381-23.818-53.2-53.2-53.2c-12.127,0-23.303,4.061-32.25,10.893C312.952,26.644,286.7,7.18,255.897,7.18
	s-57.054,19.463-67.142,46.76c-8.948-6.832-20.124-10.893-32.25-10.893c-29.382,0-53.2,23.819-53.2,53.2
	c0,9.538,2.523,18.482,6.918,26.224c-5.868-2.229-12.228-3.459-18.878-3.459c-29.382,0-53.2,23.818-53.2,53.2s23.818,53.2,53.2,53.2
	c21.963,0,40.815-13.312,48.935-32.306c2.823,0.628,5.753,0.971,8.765,0.971c15.153,0,28.341-8.4,35.171-20.796
	c1.533,0.268,3.108,0.416,4.718,0.416c3.18,0,6.23-0.551,9.066-1.554c11.862,19.562,33.348,32.637,57.898,32.637
	c24.604,0,46.13-13.134,57.975-32.769c2.941,1.09,6.122,1.686,9.442,1.686c1.466,0,2.903-0.12,4.306-0.343
	c6.842,12.354,20.005,20.723,35.129,20.723c3.012,0,5.942-0.342,8.765-0.971c8.121,18.994,26.972,32.306,48.935,32.306
	c29.382,0,53.2-23.818,53.2-53.2C473.649,142.831,449.83,119.012,420.449,119.012z"/>
<g>
	<path style="fill:#B3B3B3;" d="M199.542,52.653c12.713,2.554,25.849-1.704,34.232-11.598
		c13.126-15.491,32.721-25.324,54.616-25.324c0.499,0,0.994,0.019,1.492,0.03c-10.11-5.468-21.681-8.579-33.983-8.579
		c-29.919,0-55.542,18.364-66.231,44.432C193.043,51.654,196.345,52.011,199.542,52.653z"/>
	<path style="fill:#B3B3B3;" d="M70.68,178.601c1.082-27.298,23.16-49.604,50.446-50.971c0.461-0.023,0.921-0.04,1.38-0.051
		c8.449-0.209,14.758-7.732,13.705-16.119c-0.274-2.182-0.415-4.405-0.415-6.662c0-28.24,22.009-51.33,49.808-53.081
		c-9.008-5.9-19.909-9.148-31.599-8.612c-27.278,1.252-49.436,23.451-50.647,50.731c-0.463,10.44,2.1,20.244,6.865,28.634
		c-7.262-2.758-15.276-3.987-23.662-3.248c-25.831,2.278-46.488,23.321-48.284,49.191c-2.158,31.099,22.43,56.997,53.067,56.997
		c1.144,0,2.277-0.044,3.402-0.115C79.674,215.43,69.906,198.132,70.68,178.601z"/>
</g>
<g>
	<path style="fill:#4D4D4D;" d="M214.491,324.032v-23.788c0-4.722-3.828-8.551-8.551-8.551c-4.722,0-8.551,3.828-8.551,8.551v23.788
		c0,4.722,3.828,8.551,8.551,8.551C210.662,332.583,214.491,328.754,214.491,324.032z"/>
	<path style="fill:#4D4D4D;" d="M314.404,324.032v-23.788c0-4.722-3.828-8.551-8.551-8.551s-8.551,3.828-8.551,8.551v23.788
		c0,4.722,3.828,8.551,8.551,8.551S314.404,328.754,314.404,324.032z"/>
</g>
<g>
	<circle style="fill:#808080;" cx="283.089" cy="436.149" r="8.551"/>
	<circle style="fill:#808080;" cx="228.694" cy="436.149" r="8.551"/>
</g>
</svg>