<?xml version="1.0" encoding="iso-8859-1"?>
<!-- Uploaded to: SVG Repo, www.svgrepo.com, Generator: SVG Repo Mixer Tools -->
<svg height="800px" width="800px" version="1.1" id="Layer_1" xmlns="http://www.w3.org/2000/svg" xmlns:xlink="http://www.w3.org/1999/xlink" 
	 viewBox="0 0 511.999 511.999" xml:space="preserve">
<path style="fill:#BA82AA;" d="M479.991,182.294c0-4.607-3.733-8.34-8.34-8.34s-8.34,3.733-8.34,8.34
	c0,114.313-93.001,207.313-207.314,207.313S48.686,296.606,48.686,182.294c0-4.607-3.733-8.34-8.34-8.34s-8.34,3.733-8.34,8.34
	c0,120.717,95.993,219.417,215.653,223.821v78.64c0,4.606,3.733,8.34,8.34,8.34s8.34-3.734,8.34-8.34v-78.64
	C383.999,401.71,479.991,303.01,479.991,182.294z"/>
<path style="fill:#FFA6BB;" d="M52.785,151.905c-19.259,0-34.871,15.612-34.871,34.871l0,0c0,19.259,15.612,34.871,34.871,34.871
	h30.65v-69.743H52.785z"/>
<path style="opacity:0.1;enable-background:new    ;" d="M40.153,186.777L40.153,186.777c0-19.258,15.612-34.871,34.871-34.871
	H52.785c-19.259,0-34.871,15.613-34.871,34.871l0,0c0,19.259,15.612,34.871,34.871,34.871h22.239
	C55.765,221.648,40.153,206.036,40.153,186.777z"/>
<path style="fill:#FFA6BB;" d="M459.214,151.905c19.259,0,34.871,15.612,34.871,34.871l0,0c0,19.259-15.612,34.871-34.871,34.871
	h-30.65v-69.743H459.214z"/>
<path style="opacity:0.1;enable-background:new    ;" d="M428.564,151.905v69.743h30.65c1.077,0,2.142-0.057,3.195-0.152
	c2.409-12.705,3.683-25.807,3.683-39.203c0-10.207-0.746-20.241-2.159-30.062c-1.543-0.209-3.117-0.326-4.718-0.326H428.564z"/>
<circle style="fill:#BA82AA;" cx="255.997" cy="182.296" r="182.296"/>
<path style="opacity:0.1;enable-background:new    ;" d="M99.282,182.294c0-96.378,74.796-175.275,169.505-181.84
	c-4.225-0.292-8.488-0.453-12.788-0.453C155.322,0,73.706,81.615,73.706,182.294s81.615,182.293,182.293,182.293
	c4.3,0,8.562-0.16,12.788-0.453C174.077,357.568,99.282,278.671,99.282,182.294z"/>
<path style="fill:#B3EDFF;" d="M255.999,320.108c-75.991,0-137.815-61.823-137.815-137.815S180.009,44.479,255.999,44.479
	s137.815,61.823,137.815,137.815S331.99,320.108,255.999,320.108z"/>
<path style="fill:#FFA6BB;" d="M284.634,457.508h-57.269c-30.094,0-54.492,24.397-54.492,54.491l0,0h166.252l0,0
	C339.125,481.905,314.728,457.508,284.634,457.508z"/>
<path style="opacity:0.1;enable-background:new    ;" d="M260.724,457.508h-33.359c-30.094,0-54.492,24.397-54.492,54.491h33.359
	C206.232,481.905,230.63,457.508,260.724,457.508z"/>
</svg>