<?xml version="1.0" encoding="iso-8859-1"?>
<!-- Uploaded to: SVG Repo, www.svgrepo.com, Generator: SVG Repo Mixer Tools -->
<svg height="800px" width="800px" version="1.1" id="Layer_1" xmlns="http://www.w3.org/2000/svg" xmlns:xlink="http://www.w3.org/1999/xlink" 
	 viewBox="0 0 512 512" xml:space="preserve">
<g>
	<g>
		<path style="fill:#0B6050;" d="M221.288,69.424c-19.144,0-34.712-15.568-34.712-34.712S202.145,0,221.288,0
			c4.799,0,8.678,3.888,8.678,8.678s-3.879,8.678-8.678,8.678c-9.572,0-17.356,7.784-17.356,17.356s7.784,17.356,17.356,17.356
			c4.799,0,8.678,3.888,8.678,8.678S226.087,69.424,221.288,69.424"/>
		<path style="fill:#0B6050;" d="M212.61,156.203c-2.222,0-4.443-0.85-6.135-2.543l-26.034-26.034
			c-3.393-3.393-3.393-8.878,0-12.271c3.393-3.393,8.878-3.393,12.271,0l26.034,26.034c3.393,3.393,3.393,8.878,0,12.271
			C217.053,155.353,214.832,156.203,212.61,156.203"/>
		<path style="fill:#0B6050;" d="M203.932,225.627c-2.222,0-4.443-0.85-6.135-2.543l-26.034-26.034
			c-3.393-3.393-3.393-8.878,0-12.271c3.393-3.393,8.878-3.393,12.271,0l26.034,26.034c3.393,3.393,3.393,8.878,0,12.271
			C208.375,224.777,206.154,225.627,203.932,225.627"/>
		<path style="fill:#0B6050;" d="M177.898,286.373c-2.222,0-4.443-0.85-6.135-2.543c-3.393-3.393-3.393-8.878,0-12.271
			l26.034-26.034c3.393-3.393,8.878-3.393,12.271,0c3.393,3.393,3.393,8.878,0,12.271l-26.034,26.034
			C182.341,285.522,180.12,286.373,177.898,286.373"/>
		<path style="fill:#0B6050;" d="M195.254,512c-2.222,0-4.443-0.85-6.135-2.543c-3.393-3.393-3.393-8.878,0-12.271l26.034-26.034
			c3.393-3.393,8.878-3.393,12.271,0s3.393,8.878,0,12.271l-26.034,26.034C199.697,511.15,197.476,512,195.254,512"/>
		<path style="fill:#0B6050;" d="M212.61,329.763h-43.39c-4.799,0-8.678-3.888-8.678-8.678s3.879-8.678,8.678-8.678h43.39
			c4.799,0,8.678,3.888,8.678,8.678S217.409,329.763,212.61,329.763"/>
		<path style="fill:#0B6050;" d="M212.601,390.508c-1.649,0-3.324-0.469-4.808-1.458l-26.034-17.356
			c-3.992-2.655-5.068-8.044-2.404-12.036c2.655-3.992,8.027-5.068,12.036-2.404l26.034,17.356
			c3.992,2.655,5.068,8.044,2.404,12.036C218.164,389.155,215.404,390.508,212.601,390.508"/>
		<path style="fill:#0B6050;" d="M186.585,442.576c-2.803,0-5.563-1.354-7.229-3.862c-2.664-3.992-1.588-9.381,2.404-12.036
			l26.034-17.356c3.992-2.673,9.372-1.579,12.036,2.404c2.664,3.992,1.588,9.381-2.404,12.036l-26.034,17.356
			C189.909,442.108,188.234,442.576,186.585,442.576"/>
		<path style="fill:#0B6050;" d="M290.712,69.424c-4.799,0-8.678-3.888-8.678-8.678s3.879-8.678,8.678-8.678
			c9.572,0,17.356-7.784,17.356-17.356s-7.784-17.356-17.356-17.356c-4.799,0-8.678-3.888-8.678-8.678S285.913,0,290.712,0
			c19.144,0,34.712,15.568,34.712,34.712S309.855,69.424,290.712,69.424"/>
		<path style="fill:#0B6050;" d="M299.39,156.203c-2.222,0-4.443-0.85-6.135-2.543c-3.393-3.393-3.393-8.878,0-12.271l26.034-26.034
			c3.393-3.393,8.878-3.393,12.271,0c3.393,3.393,3.393,8.878,0,12.271l-26.034,26.034
			C303.833,155.353,301.611,156.203,299.39,156.203"/>
		<path style="fill:#0B6050;" d="M316.746,512c-2.222,0-4.443-0.85-6.135-2.543l-26.034-26.034c-3.393-3.393-3.393-8.878,0-12.271
			c3.393-3.393,8.878-3.393,12.271,0l26.034,26.034c3.393,3.393,3.393,8.878,0,12.271C321.189,511.15,318.967,512,316.746,512"/>
		<path style="fill:#0B6050;" d="M342.78,329.763h-43.39c-4.799,0-8.678-3.888-8.678-8.678s3.879-8.678,8.678-8.678h43.39
			c4.799,0,8.678,3.888,8.678,8.678S347.579,329.763,342.78,329.763"/>
		<path style="fill:#0B6050;" d="M308.068,225.627c-2.222,0-4.443-0.85-6.135-2.543c-3.393-3.393-3.393-8.878,0-12.271
			l26.034-26.034c3.393-3.393,8.878-3.393,12.271,0c3.393,3.393,3.393,8.878,0,12.271l-26.034,26.034
			C312.511,224.777,310.289,225.627,308.068,225.627"/>
		<path style="fill:#0B6050;" d="M334.102,286.373c-2.222,0-4.443-0.85-6.135-2.543l-26.034-26.034
			c-3.393-3.393-3.393-8.878,0-12.271c3.393-3.393,8.878-3.393,12.271,0l26.034,26.034c3.393,3.393,3.393,8.878,0,12.271
			C338.545,285.522,336.323,286.373,334.102,286.373"/>
		<path style="fill:#0B6050;" d="M299.398,390.508c-2.803,0-5.563-1.354-7.229-3.862c-2.664-3.992-1.588-9.381,2.404-12.036
			l26.034-17.356c3.992-2.664,9.372-1.588,12.036,2.404c2.664,3.992,1.588,9.381-2.404,12.036l-26.034,17.356
			C302.722,390.04,301.047,390.508,299.398,390.508"/>
		<path style="fill:#0B6050;" d="M325.415,442.576c-1.649,0-3.324-0.469-4.808-1.458l-26.034-17.356
			c-3.992-2.655-5.068-8.044-2.404-12.036c2.655-3.983,8.027-5.077,12.036-2.404l26.034,17.356
			c3.992,2.655,5.068,8.044,2.404,12.036C330.978,441.223,328.218,442.576,325.415,442.576"/>
	</g>
	<path style="fill:#117C68;" d="M299.39,468.61c0,19.17-19.421,34.712-43.39,34.712s-43.39-15.542-43.39-34.712
		s19.421-34.712,43.39-34.712S299.39,449.441,299.39,468.61"/>
	<path style="fill:#13A085;" d="M308.068,399.186c0,19.17-23.318,34.712-52.068,34.712s-52.068-15.542-52.068-34.712
		c0-19.17,23.318-34.712,52.068-34.712S308.068,380.017,308.068,399.186"/>
	<path style="fill:#117C68;" d="M308.068,321.085c0,23.96-23.318,43.39-52.068,43.39s-52.068-19.43-52.068-43.39
		s23.318-43.39,52.068-43.39S308.068,297.125,308.068,321.085"/>
	<g>
		<path style="fill:#13A085;" d="M316.746,234.305c0,23.96-27.197,43.39-60.746,43.39s-60.746-19.43-60.746-43.39
			s27.197-43.39,60.746-43.39S316.746,210.345,316.746,234.305"/>
		<path style="fill:#13A085;" d="M212.61,69.424c0-19.17,19.421-34.712,43.39-34.712s43.39,15.542,43.39,34.712
			s-19.421,34.712-43.39,34.712S212.61,88.593,212.61,69.424"/>
	</g>
	<path style="fill:#117C68;" d="M203.932,147.525c0-23.96,23.318-43.39,52.068-43.39s52.068,19.43,52.068,43.39
		s-23.318,43.39-52.068,43.39S203.932,171.485,203.932,147.525"/>
</g>
</svg>