<?xml version="1.0" encoding="iso-8859-1"?>
<!-- Uploaded to: SVG Repo, www.svgrepo.com, Generator: SVG Repo Mixer Tools -->
<svg height="800px" width="800px" version="1.1" id="Layer_1" xmlns="http://www.w3.org/2000/svg" xmlns:xlink="http://www.w3.org/1999/xlink" 
	 viewBox="0 0 512 512" xml:space="preserve">
<path style="fill:#B2C4D0;" d="M256,256c-4.376-5.344-9.832-9.704-16-12.8c0,40.88,0,180.8,0,180.8h32V243.2
	C265.832,246.296,260.376,250.656,256,256z"/>
<path style="fill:#DE333F;" d="M464,256c-14.448-19.152-41.688-22.968-60.84-8.52c-3.224,2.432-6.088,5.296-8.52,8.52
	c0-123.68-62-224-138.64-224C370.8,32,464,132.32,464,256z"/>
<g>
	<path style="fill:#C61C31;" d="M256,32c-76.64,0-138.64,100.32-138.64,224c-14.448-19.152-41.688-22.968-60.84-8.52
		c-3.224,2.432-6.088,5.296-8.52,8.52C48,132.32,141.2,32,256,32z"/>
	<path style="fill:#C61C31;" d="M256,32c38.32,0,69.36,100.32,69.36,224c14.448-19.152,41.688-22.968,60.84-8.52
		c3.224,2.432,6.088,5.296,8.52,8.52C394.64,132.32,332.64,32,256,32z"/>
</g>
<path style="fill:#DE333F;" d="M117.36,256c14.448-19.152,41.688-22.968,60.84-8.52c3.224,2.432,6.088,5.296,8.52,8.52
	c0-123.68,31.04-224,69.36-224C179.36,32,117.36,132.32,117.36,256z"/>
<path style="fill:#C61C31;" d="M186.64,256c14.448-19.152,41.688-22.968,60.84-8.52c3.224,2.432,6.088,5.296,8.52,8.52V32
	C217.68,32,186.64,132.32,186.64,256z"/>
<path style="fill:#DE333F;" d="M256,32v224c14.448-19.152,41.688-22.968,60.84-8.52c3.224,2.432,6.088,5.296,8.52,8.52
	C325.36,132.32,294.32,32,256,32z"/>
<path style="fill:#8FAEBF;" d="M256,256c-4.376-5.344-9.832-9.704-16-12.8V256c8.84,0,16,7.16,16,16v152h16V243.2
	C265.832,246.296,260.376,250.656,256,256z"/>
<path style="fill:#B06328;" d="M240,424v32c0,13.256-10.744,24-24,24s-24-10.744-24-24c0-8.84-7.16-16-16-16s-16,7.16-16,16
	c0,30.928,25.072,56,56,56s56-25.072,56-56v-32H240z"/>
<path style="fill:#A35425;" d="M256,424h16l0,0v32l0,0l0,0c-8.84,0-16-7.16-16-16V424L256,424z"/>
<path style="fill:#B2C4D0;" d="M256,32c5.36,0,10.64,0,16,0.72c0,0,0-0.48,0-0.72V16c0-8.84-7.16-16-16-16s-16,7.16-16,16l0,0v16
	l0,0c0,0,0,0.48,0,0.72C245.36,32,250.64,32,256,32z"/>
<path style="fill:#8FAEBF;" d="M271.28,32.64L272,32V16c0-4.416-3.584-8-8-8s-8,3.584-8,8v16C261.12,32,266.24,32,271.28,32.64z"/>
</svg>